<?xml version="1.0" encoding="UTF-8" standalone="no"?>
<svg
   width="982.10046"
   height="296.91849"
   version="1.1"
   viewBox="0 0 982.10049 296.91849"
   xml:space="preserve"
   id="svg138"
   sodipodi:docname="Windows_2000_logo.svg"
   inkscape:version="1.3.2 (091e20e, 2023-11-25, custom)"
   xmlns:inkscape="http://www.inkscape.org/namespaces/inkscape"
   xmlns:sodipodi="http://sodipodi.sourceforge.net/DTD/sodipodi-0.dtd"
   xmlns="http://www.w3.org/2000/svg"
   xmlns:svg="http://www.w3.org/2000/svg"><sodipodi:namedview
     id="namedview138"
     pagecolor="#ffffff"
     bordercolor="#000000"
     borderopacity="0.25"
     inkscape:showpageshadow="2"
     inkscape:pageopacity="0.0"
     inkscape:pagecheckerboard="0"
     inkscape:deskcolor="#d1d1d1"
     inkscape:zoom="0.71599998"
     inkscape:cx="500.00001"
     inkscape:cy="207.40224"
     inkscape:window-width="1366"
     inkscape:window-height="705"
     inkscape:window-x="-8"
     inkscape:window-y="-8"
     inkscape:window-maximized="1"
     inkscape:current-layer="svg138" /><defs
     id="defs45"><clipPath
       id="clipPath22"><path
         d="m 234.95,3019 h 1762.2 V 1256.8 H 234.95 Z"
         clip-rule="evenodd"
         id="path1" /></clipPath><linearGradient
       id="linearGradient32"
       x1="-124.6"
       x2="124.6"
       gradientTransform="matrix(7.0711,-7.0711,7.0711,7.0711,1116,2137.9)"
       gradientUnits="userSpaceOnUse"><stop
         stop-color="#fff"
         offset="0"
         id="stop1" /><stop
         stop-color="#f7dd49"
         offset=".14844"
         id="stop2" /><stop
         stop-color="#f7dd49"
         offset=".82031"
         id="stop3" /><stop
         stop-color="#fff"
         offset="1"
         id="stop4" /></linearGradient><clipPath
       id="clipPath46"><path
         d="M 4172.6,3116.1 H 5671 V 1617.7 H 4172.6 Z"
         clip-rule="evenodd"
         id="path4" /></clipPath><linearGradient
       id="linearGradient52"
       x1="-74.924004"
       x2="74.924004"
       gradientTransform="matrix(10,0,0,10,4921.8,2366.9)"
       gradientUnits="userSpaceOnUse"><stop
         stop-color="#3b7ec2"
         offset="0"
         id="stop5" /><stop
         stop-color="#9bd3ec"
         offset="1"
         id="stop6" /></linearGradient><clipPath
       id="clipPath62"><path
         d="M 4371.8,2916.8 H 5471.7 V 1816.9 H 4371.8 Z"
         clip-rule="evenodd"
         id="path6" /></clipPath><linearGradient
       id="linearGradient70"
       x1="-54.994999"
       x2="54.994999"
       gradientTransform="matrix(-10,0,0,-10,4921.8,2366.9)"
       gradientUnits="userSpaceOnUse"><stop
         stop-color="#d0f0fd"
         offset="0"
         id="stop7" /><stop
         stop-color="#d0f0fd"
         offset=".39844"
         id="stop8" /><stop
         stop-color="#61ace3"
         offset="1"
         id="stop9" /></linearGradient><clipPath
       id="clipPath82"><path
         d="M 2724.6,3155.5 H 4257.8 V 1622.3 H 2724.6 Z"
         clip-rule="evenodd"
         id="path9" /></clipPath><linearGradient
       id="linearGradient88"
       x1="-76.663002"
       x2="76.663002"
       gradientTransform="matrix(10,0,0,10,3491.3,2388.9)"
       gradientUnits="userSpaceOnUse"><stop
         stop-color="#0747cf"
         offset="0"
         id="stop10" /><stop
         stop-color="#c3d0e0"
         offset="1"
         id="stop11" /></linearGradient><clipPath
       id="clipPath98"><path
         d="m 988.33,3648.2 h 1954.6 v -87.27 H 988.33 Z"
         clip-rule="evenodd"
         id="path11" /></clipPath><linearGradient
       id="linearGradient108"
       x1="-73.640999"
       x2="73.640999"
       gradientTransform="matrix(7.0711,-7.0711,7.0711,7.0711,1965.6,3604.5)"
       gradientUnits="userSpaceOnUse"><stop
         stop-color="#a7c6e2"
         offset="0"
         id="stop12" /><stop
         stop-color="#f4f8f9"
         offset=".27344"
         id="stop13" /><stop
         stop-color="#f4f8f9"
         offset=".70312"
         id="stop14" /><stop
         stop-color="#084890"
         offset="1"
         id="stop15" /></linearGradient><clipPath
       id="clipPath118"><path
         d="m 988.33,3731.9 h 1954.6 v -83.77 H 988.33 Z"
         clip-rule="evenodd"
         id="path15" /></clipPath><linearGradient
       id="linearGradient128"
       x1="-71.018997"
       x2="71.018997"
       gradientTransform="matrix(7.214,-6.9252,6.9252,7.214,1965.6,3690)"
       gradientUnits="userSpaceOnUse"><stop
         stop-color="#a7c6e2"
         offset="0"
         id="stop16" /><stop
         stop-color="#f4f8f9"
         offset=".27344"
         id="stop17" /><stop
         stop-color="#f4f8f9"
         offset=".70312"
         id="stop18" /><stop
         stop-color="#020747"
         offset="1"
         id="stop19" /></linearGradient><clipPath
       id="clipPath138"><path
         d="M 1912.1,2326.6 H 3410.5 V 828.2 H 1912.1 Z"
         clip-rule="evenodd"
         id="path19" /></clipPath><linearGradient
       id="linearGradient144"
       x1="-74.922997"
       x2="74.922997"
       gradientTransform="matrix(0,-10,10,0,2661.3,1577.4)"
       gradientUnits="userSpaceOnUse"><stop
         stop-color="#000364"
         offset="0"
         id="stop20" /><stop
         stop-color="#166fc3"
         offset="1"
         id="stop21" /></linearGradient><clipPath
       id="clipPath154"><path
         d="M 2111.3,2127.3 H 3211.2 V 1027.4 H 2111.3 Z"
         clip-rule="evenodd"
         id="path21" /></clipPath><linearGradient
       id="linearGradient162"
       x1="-54.994999"
       x2="54.994999"
       gradientTransform="matrix(0,-10,10,0,2661.3,1577.4)"
       gradientUnits="userSpaceOnUse"><stop
         stop-color="#020360"
         offset="0"
         id="stop22" /><stop
         stop-color="#cfe0f0"
         offset=".50781"
         id="stop23" /><stop
         stop-color="#cfe0f0"
         offset="1"
         id="stop24" /></linearGradient><clipPath
       id="clipPath174"><path
         d="m 992.41,3560.9 h 1944.3 l -0.47,-2043 H 992.34 Z"
         clip-rule="evenodd"
         id="path24" /></clipPath><linearGradient
       id="linearGradient188"
       x1="-141.99001"
       x2="141.99001"
       gradientTransform="matrix(7.2789,-6.8569,6.8569,7.2789,1964.6,2539.4)"
       gradientUnits="userSpaceOnUse"><stop
         stop-color="#00084d"
         offset="0"
         id="stop25" /><stop
         stop-color="#649bc2"
         offset=".25"
         id="stop26" /><stop
         stop-color="#02418e"
         offset=".40625"
         id="stop27" /><stop
         stop-color="#02418e"
         offset=".55469"
         id="stop28" /><stop
         stop-color="#649bc2"
         offset=".71094"
         id="stop29" /><stop
         stop-color="#00084d"
         offset="1"
         id="stop30" /></linearGradient><clipPath
       id="clipPath198"><path
         d="m 795.37,3454.7 h 1926.1 l -0.1,-1699.9 212.92,-236.9 h -2139 z"
         clip-rule="evenodd"
         id="path30" /></clipPath><linearGradient
       id="linearGradient204"
       x1="-144.72"
       x2="144.72"
       gradientTransform="matrix(7.0711,-7.0711,7.0711,7.0711,1864.8,2486.3)"
       gradientUnits="userSpaceOnUse"><stop
         stop-color="#fff"
         offset="0"
         id="stop31" /><stop
         stop-color="#ef371f"
         offset="1"
         id="stop32" /></linearGradient><clipPath
       id="clipPath214"><path
         d="M 1102.1,1755.7 H 2721 l 108.34,-120.8 h -1727.3 z"
         clip-rule="evenodd"
         id="path32" /></clipPath><linearGradient
       id="linearGradient224"
       x1="-69.001999"
       x2="69.001999"
       gradientTransform="matrix(6.6627,-7.4571,7.4571,6.6627,1965.7,1695.3)"
       gradientUnits="userSpaceOnUse"><stop
         stop-color="#f36a48"
         offset="0"
         id="stop33" /><stop
         stop-color="#feb19d"
         offset=".25781"
         id="stop34" /><stop
         stop-color="#feb19d"
         offset=".48438"
         id="stop35" /><stop
         stop-color="#f06b4a"
         offset="1"
         id="stop36" /></linearGradient><clipPath
       id="clipPath234"><path
         d="m 987.75,3567.2 114.32,-111.24 -0.03,-1714 H 987.75 Z"
         clip-rule="evenodd"
         id="path36" /></clipPath><linearGradient
       id="linearGradient246"
       x1="-69.174004"
       x2="69.174004"
       gradientTransform="matrix(7.0711,-7.0711,7.0711,7.0711,1044.9,2654.6)"
       gradientUnits="userSpaceOnUse"><stop
         stop-color="#ecf3f9"
         offset="0"
         id="stop37" /><stop
         stop-color="#88b1d1"
         offset=".11719"
         id="stop38" /><stop
         stop-color="#ecf3f9"
         offset=".36719"
         id="stop39" /><stop
         stop-color="#ecf3f9"
         offset=".67969"
         id="stop40" /><stop
         stop-color="#82a7d1"
         offset="1"
         id="stop41" /></linearGradient><clipPath
       id="clipPath258"><path
         d="m 2810.6,1836.4 v -2 z"
         clip-rule="evenodd"
         id="path41" /></clipPath><radialGradient
       id="radialGradient264"
       cx="295.06"
       cy="417.54999"
       r="0"
       gradientTransform="matrix(10,0,0,10,-140,-2340)"
       gradientUnits="userSpaceOnUse"><stop
         stop-color="#52bd44"
         offset="0"
         id="stop42" /><stop
         stop-color="#52bd44"
         offset="1"
         id="stop43" /></radialGradient><clipPath
       id="clipPath274"><path
         d="m 1104.2,1462.8 v 1.09 z"
         clip-rule="evenodd"
         id="path43" /></clipPath><radialGradient
       id="radialGradient280"
       cx="124.42"
       cy="380.32999"
       r="0"
       gradientTransform="matrix(10,0,0,10,-140,-2340)"
       gradientUnits="userSpaceOnUse"><stop
         stop-color="#52bd44"
         offset="0"
         id="stop44" /><stop
         stop-color="#52bd44"
         offset="1"
         id="stop45" /></radialGradient><filter
       id="filter2215"
       x="-0.10254717"
       y="-0.62765758"
       width="1.2039049"
       height="2.7525077"
       color-interpolation-filters="sRGB"><feGaussianBlur
         stdDeviation="19.218795"
         id="feGaussianBlur45" /></filter></defs><g
     transform="matrix(1.3108132,0,0,1.3108132,-81.892136,-24.903108)"
     id="g138"><g
       transform="matrix(0.78009,0,0,-0.78009,62.339,310.12)"
       id="g66"
       style="display:inline"><g
         transform="scale(0.1)"
         id="g65"><g
           clip-path="url(#clipPath46)"
           id="g45"><path
             d="M 4172.6,3116.1 H 5671 V 1617.7 H 4172.6 v 1498.4"
             fill="url(#linearGradient52)"
             id="path45"
             style="fill:url(#linearGradient52)" /></g><g
           clip-path="url(#clipPath62)"
           id="g46"><path
             d="M 4371.8,2916.8 H 5471.7 V 1816.9 H 4371.8 v 1099.9"
             fill="url(#linearGradient70)"
             id="path46"
             style="fill:url(#linearGradient70)" /></g><path
           d="M 2446.8,3433.3 H 4535.6 V 1344.5 H 2446.8 v 2088.8"
           fill="#00209b"
           fill-rule="evenodd"
           id="path47" /><g
           clip-path="url(#clipPath22)"
           id="g48"><path
             d="m 234.95,3019 h 1762.2 V 1256.8 H 234.95 V 3019"
             fill="url(#linearGradient32)"
             id="path48"
             style="fill:url(#linearGradient32)" /></g><path
           d="m 1.7344,2769.3 h 1648.3 V 1121 H 1.7344 v 1648.3"
           fill="#f66b42"
           fill-rule="evenodd"
           id="path49" /><path
           d="m 220.94,2550.1 h 1209.9 V 1340.2 H 220.94 v 1209.9"
           fill="#f23901"
           fill-rule="evenodd"
           id="path50" /><g
           clip-path="url(#clipPath82)"
           id="g51"><path
             d="M 2724.6,3155.5 H 4257.8 V 1622.3 H 2724.6 v 1533.2"
             fill="url(#linearGradient88)"
             id="path51"
             style="fill:url(#linearGradient88)" /></g><g
           clip-path="url(#clipPath138)"
           id="g52"><path
             d="M 1912.1,2326.6 H 3410.5 V 828.2 H 1912.1 v 1498.4"
             fill="url(#linearGradient144)"
             id="path52"
             style="fill:url(#linearGradient144)" /></g><g
           clip-path="url(#clipPath154)"
           id="g53"><path
             d="M 2111.3,2127.3 H 3211.2 V 1027.4 H 2111.3 v 1099.9"
             fill="url(#linearGradient162)"
             id="path53"
             style="fill:url(#linearGradient162)" /></g><path
           d="m 988.33,3648.2 h 2055.2 V 1635 H 988.33 v 2013.2"
           fill="#00064e"
           fill-rule="evenodd"
           id="path54" /><g
           transform="matrix(0.9966,0,0,1,3.3625,0)"
           id="g56"><g
             clip-path="url(#clipPath98)"
             id="g55"><path
               d="m 988.33,3648.2 h 1954.6 v -87.27 H 988.33 v 87.27"
               fill="url(#linearGradient108)"
               id="path55"
               style="fill:url(#linearGradient108)" /></g></g><g
           transform="matrix(0.9966,0,0,1,3.3625,0)"
           id="g58"><g
             clip-path="url(#clipPath118)"
             id="g57"><path
               d="m 988.33,3731.9 h 1954.6 v -83.77 H 988.33 v 83.77"
               fill="url(#linearGradient128)"
               id="path56"
               style="fill:url(#linearGradient128)" /></g></g><g
           clip-path="url(#clipPath174)"
           id="g59"><path
             d="m 992.41,3560.9 h 1944.3 l -0.47,-2043 H 992.34 v 2043"
             fill="url(#linearGradient188)"
             id="path58"
             style="fill:url(#linearGradient188)" /></g><g
           clip-path="url(#clipPath198)"
           id="g60"><path
             d="m 795.37,3454.7 h 1926.1 l -0.1,-1699.9 212.92,-236.9 h -2139 v 1936.8"
             fill="url(#linearGradient204)"
             id="path59"
             style="fill:url(#linearGradient204)" /></g><g
           clip-path="url(#clipPath214)"
           id="g61"><path
             d="M 1102.1,1755.7 H 2721 l 108.34,-120.8 h -1727.3 v 120.8"
             fill="url(#linearGradient224)"
             id="path60"
             style="fill:url(#linearGradient224)" /></g><g
           clip-path="url(#clipPath234)"
           id="g62"><path
             d="m 987.75,3567.2 114.32,-111.24 -0.03,-1714 H 987.75 v 1825.3"
             fill="url(#linearGradient246)"
             id="path61"
             style="fill:url(#linearGradient246)" /></g><path
           d="M 1100.4,3457.8 H 2721 V 1755.7 H 1100.4 v 1702.1"
           fill="#ffffff"
           fill-rule="evenodd"
           id="path62" /><g
           clip-path="url(#clipPath258)"
           id="g63"><path
             d="m 2810.6,1836.4 v -2 2"
             fill="url(#radialGradient264)"
             id="path63"
             style="fill:url(#radialGradient264)" /></g><g
           clip-path="url(#clipPath274)"
           id="g64"><path
             d="m 1104.2,1462.8 v 1.09 -1.09"
             fill="url(#radialGradient280)"
             id="path64"
             style="fill:url(#radialGradient280)" /></g></g></g><g
       transform="matrix(0.53605,0,0,0.83424,92.688,-15.602)"
       fill="#ffffff"
       filter="url(#filter2215)"
       stroke="#ffffff"
       id="g88"
       style="display:inline"><g
         transform="matrix(5.2444,0,0,5.0227,167.23,-224.65)"
         stroke-width="15.587"
         id="g74"><path
           d="M 85.117,77.792 H 80.301 L 77.415,89.099 74.556,77.792 H 69.584 L 66.905,89.235 64.072,77.792 H 58.12 l 5.412,19.578 h 5.409 l 2.679,-11.14 2.756,11.139 h 5.307 z"
           id="path66" /><path
           d="m 83.881,81.708 h 5.95 v -3.917 h -5.95 z m 5.949,1.158 h -5.95 v 14.503 h 5.95 z"
           id="path67" /><path
           d="m 96.04,88.463 c 0,-0.661 0.128,-1.158 0.413,-1.516 0.283,-0.389 0.67,-0.553 1.184,-0.553 0.49,0 0.825,0.164 1.056,0.497 0.233,0.331 0.334,0.855 0.334,1.543 v 8.934 h 5.745 v -9.541 c 0,-1.874 -0.385,-3.225 -1.159,-4.081 -0.773,-0.855 -2.01,-1.27 -3.683,-1.27 -0.979,0 -1.854,0.221 -2.576,0.635 -0.722,0.387 -1.289,0.992 -1.727,1.819 v -2.067 h -5.332 v 14.504 h 5.745 z"
           id="path68" /><path
           d="m 119.97,77.792 h -5.771 v 6.313 c -0.464,-0.549 -1.005,-0.964 -1.599,-1.212 -0.565,-0.275 -1.209,-0.414 -1.982,-0.414 -1.828,0 -3.297,0.691 -4.405,2.097 -1.083,1.379 -1.648,3.226 -1.648,5.57 0,2.344 0.54,4.219 1.597,5.598 1.056,1.35 2.498,2.012 4.327,2.012 0.876,0 1.647,-0.166 2.319,-0.523 0.668,-0.387 1.235,-0.938 1.698,-1.684 l 0.026,1.82 h 5.435 V 77.792 Z m -7.522,8.328 c 0.593,0 1.058,0.165 1.339,0.467 0.285,0.36 0.413,0.8 0.413,1.38 v 4.136 c 0,0.551 -0.128,1.02 -0.465,1.352 -0.309,0.359 -0.694,0.549 -1.184,0.549 -0.669,0 -1.133,-0.301 -1.441,-0.908 -0.309,-0.58 -0.464,-1.516 -0.464,-2.868 0,-1.405 0.155,-2.454 0.464,-3.088 0.282,-0.663 0.744,-1.02 1.338,-1.02 z"
           id="path69" /><path
           d="m 133.65,84.576 c -1.495,-1.38 -3.453,-2.097 -5.874,-2.097 -2.447,0 -4.38,0.717 -5.9,2.097 -1.494,1.406 -2.241,3.253 -2.241,5.542 0,2.29 0.747,4.136 2.267,5.542 1.493,1.408 3.427,2.096 5.873,2.096 2.422,0 4.379,-0.688 5.874,-2.096 1.493,-1.406 2.241,-3.252 2.241,-5.542 0.002,-2.289 -0.746,-4.137 -2.24,-5.542 z m -7.882,5.542 c 0,-1.38 0.153,-2.372 0.462,-3.033 0.311,-0.635 0.852,-0.965 1.547,-0.965 0.694,0 1.184,0.33 1.52,0.965 0.311,0.661 0.489,1.654 0.489,3.033 0,1.378 -0.179,2.372 -0.489,3.034 -0.336,0.633 -0.825,0.965 -1.52,0.965 -0.695,0 -1.236,-0.332 -1.547,-0.965 -0.309,-0.607 -0.462,-1.629 -0.462,-3.034 z"
           id="path70" /><path
           d="m 155.91,82.866 h -4.046 l -2.137,7.306 -1.881,-7.306 h -4.353 l -1.829,7.113 -2.086,-7.113 h -5.72 l 4.79,14.503 h 4.2 l 2.062,-8.107 2.009,8.107 h 4.25 z"
           id="path71" /><path
           d="m 156.06,83.802 c -1.263,0.911 -1.907,2.152 -1.907,3.641 0,0.634 0.155,1.241 0.438,1.792 0.309,0.58 0.723,1.049 1.237,1.407 0.851,0.659 2.266,1.13 4.301,1.489 l 1.571,0.221 c 1.21,0.139 1.829,0.439 1.829,0.883 0,0.275 -0.181,0.551 -0.567,0.688 -0.387,0.195 -0.9,0.277 -1.544,0.277 -0.954,0 -1.728,-0.139 -2.243,-0.414 -0.541,-0.275 -0.9,-0.689 -1.03,-1.213 l -4.715,0.551 c 0.413,1.488 1.263,2.592 2.603,3.365 1.314,0.771 3.038,1.158 5.151,1.158 2.268,0 4.098,-0.498 5.487,-1.463 1.392,-0.939 2.088,-2.18 2.088,-3.723 0,-0.58 -0.13,-1.16 -0.362,-1.711 -0.206,-0.496 -0.541,-0.937 -1.005,-1.351 -0.721,-0.606 -2.009,-1.076 -3.864,-1.407 l -2.009,-0.304 c -1.52,-0.192 -2.318,-0.523 -2.318,-0.992 0,-0.303 0.155,-0.524 0.439,-0.688 0.283,-0.139 0.694,-0.221 1.235,-0.221 0.722,0 1.313,0.11 1.728,0.332 0.412,0.193 0.771,0.496 1.03,0.938 l 4.508,-0.745 c -0.516,-1.242 -1.366,-2.208 -2.551,-2.896 -1.16,-0.66 -2.652,-0.991 -4.431,-0.991 -2.138,0 -3.81,0.469 -5.099,1.377 z"
           id="path72" /><path
           d="m 169.94,84.445 c -0.205,-0.221 -0.438,-0.303 -0.722,-0.303 -0.284,0 -0.542,0.082 -0.746,0.303 -0.182,0.221 -0.284,0.467 -0.284,0.799 0,0.303 0.103,0.552 0.284,0.745 0.204,0.221 0.462,0.304 0.746,0.304 0.284,0 0.515,-0.083 0.722,-0.304 0.182,-0.192 0.284,-0.441 0.284,-0.745 0.001,-0.331 -0.102,-0.577 -0.284,-0.799 z m -0.154,0.138 c 0.154,0.166 0.232,0.387 0.232,0.661 0,0.247 -0.077,0.442 -0.232,0.635 -0.154,0.166 -0.334,0.249 -0.565,0.249 -0.233,0 -0.438,-0.083 -0.593,-0.249 -0.181,-0.193 -0.259,-0.387 -0.259,-0.635 0,-0.274 0.078,-0.496 0.259,-0.661 0.155,-0.195 0.36,-0.277 0.593,-0.277 0.23,0 0.41,0.082 0.565,0.277 z"
           id="path73" /><path
           d="m 169.68,84.97 c 0,-0.25 -0.129,-0.36 -0.412,-0.36 h -0.463 v 1.241 h 0.18 V 85.3 h 0.207 l 0.309,0.551 h 0.205 L 169.372,85.3 c 0.206,-0.028 0.308,-0.138 0.308,-0.33 z m -0.206,-0.029 c 0,0.138 -0.078,0.221 -0.257,0.221 h -0.233 v -0.386 h 0.233 c 0.179,0 0.257,0.055 0.257,0.165 z"
           id="path74" /></g><g
         transform="matrix(5.8408,0,0,5.5939,124.85,-269.22)"
         stroke-width="13.996"
         id="g83"><path
           d="m 58.708,77.893 v -6.34 h -1.103 l -1.906,5.336 -1.936,-5.336 H 52.66 v 6.34 h 0.651 v -5.672 l 2.041,5.672 h 0.545 l 2.072,-5.619 v 5.619 z"
           id="path75" /><path
           d="m 60.145,72.256 h 0.68 v -0.704 h -0.68 z m 0,5.637 h 0.68 v -4.686 h -0.68 z"
           id="path76" /><path
           d="m 63.895,73.665 c 0.288,0 0.529,0.106 0.71,0.317 0.212,0.212 0.333,0.512 0.378,0.863 l 0.65,-0.106 c -0.076,-0.51 -0.273,-0.934 -0.56,-1.233 -0.302,-0.282 -0.68,-0.441 -1.119,-0.441 -0.636,0 -1.133,0.229 -1.513,0.687 -0.378,0.477 -0.575,1.058 -0.575,1.797 0,0.757 0.167,1.356 0.529,1.797 0.362,0.458 0.847,0.688 1.451,0.688 0.469,0 0.863,-0.141 1.179,-0.44 0.302,-0.282 0.514,-0.688 0.605,-1.199 l -0.635,-0.123 c -0.061,0.37 -0.197,0.669 -0.394,0.862 -0.212,0.194 -0.454,0.282 -0.74,0.282 -0.378,0 -0.681,-0.159 -0.923,-0.512 -0.226,-0.334 -0.332,-0.792 -0.332,-1.356 0,-0.563 0.106,-1.021 0.348,-1.374 0.245,-0.332 0.563,-0.509 0.941,-0.509 z"
           id="path77" /><path
           d="m 68.884,73.083 -0.242,-0.018 c -0.332,0 -0.604,0.106 -0.816,0.3 -0.227,0.176 -0.409,0.476 -0.544,0.881 v -1.04 h -0.666 v 4.686 h 0.696 v -2.361 c 0,-0.528 0.136,-0.95 0.394,-1.269 0.257,-0.316 0.605,-0.476 1.074,-0.476 h 0.105 z"
           id="path78" /><path
           d="m 72.771,77.345 c 0.394,-0.458 0.575,-1.056 0.575,-1.797 0,-0.739 -0.181,-1.338 -0.575,-1.797 -0.378,-0.457 -0.877,-0.687 -1.526,-0.687 -0.62,0 -1.119,0.229 -1.513,0.687 -0.378,0.459 -0.575,1.058 -0.575,1.797 0,0.74 0.197,1.339 0.575,1.797 0.394,0.458 0.891,0.688 1.513,0.688 0.634,0 1.131,-0.228 1.526,-0.688 z m -1.527,-3.68 c 0.423,0 0.741,0.159 0.967,0.51 0.257,0.335 0.378,0.793 0.378,1.374 0,0.583 -0.121,1.039 -0.378,1.392 -0.227,0.334 -0.559,0.51 -0.967,0.51 -0.409,0 -0.726,-0.176 -0.969,-0.51 -0.241,-0.334 -0.363,-0.792 -0.363,-1.392 0,-0.598 0.121,-1.056 0.349,-1.374 0.242,-0.351 0.574,-0.51 0.983,-0.51 z"
           id="path79" /><path
           d="m 75.81,75.127 c -0.68,-0.158 -1.029,-0.388 -1.029,-0.722 0,-0.229 0.076,-0.406 0.257,-0.545 0.167,-0.125 0.408,-0.195 0.696,-0.195 0.287,0 0.53,0.07 0.696,0.195 0.18,0.122 0.302,0.317 0.377,0.545 l 0.635,-0.141 c -0.105,-0.388 -0.316,-0.687 -0.604,-0.88 -0.287,-0.211 -0.651,-0.318 -1.075,-0.318 -0.499,0 -0.907,0.141 -1.209,0.406 -0.302,0.263 -0.469,0.598 -0.469,1.021 0,0.352 0.106,0.634 0.317,0.828 0.226,0.195 0.62,0.37 1.18,0.492 l 0.242,0.053 c 0.726,0.193 1.089,0.458 1.089,0.792 0,0.229 -0.091,0.423 -0.288,0.564 -0.197,0.158 -0.455,0.228 -0.757,0.228 -0.333,0 -0.604,-0.07 -0.846,-0.228 -0.226,-0.176 -0.394,-0.388 -0.483,-0.67 l -0.62,0.125 c 0.105,0.422 0.333,0.757 0.665,0.986 0.349,0.245 0.771,0.369 1.286,0.369 0.529,0 0.952,-0.141 1.285,-0.422 0.318,-0.264 0.499,-0.635 0.499,-1.04 0,-0.352 -0.122,-0.634 -0.349,-0.828 -0.212,-0.212 -0.575,-0.388 -1.089,-0.527 z"
           id="path80" /><path
           d="m 78.804,73.752 c -0.394,0.441 -0.591,1.058 -0.591,1.797 0,0.74 0.197,1.339 0.591,1.797 0.378,0.458 0.877,0.687 1.512,0.687 0.62,0 1.134,-0.229 1.528,-0.687 0.376,-0.458 0.574,-1.056 0.574,-1.797 0,-0.739 -0.197,-1.338 -0.574,-1.797 -0.378,-0.457 -0.893,-0.687 -1.528,-0.687 -0.635,0 -1.134,0.23 -1.512,0.687 z m 0.529,3.189 c -0.242,-0.352 -0.363,-0.81 -0.363,-1.392 0,-0.581 0.121,-1.039 0.363,-1.374 0.228,-0.352 0.56,-0.51 0.983,-0.51 0.409,0 0.726,0.159 0.983,0.51 0.226,0.335 0.362,0.793 0.362,1.374 0,0.583 -0.136,1.039 -0.378,1.392 -0.242,0.334 -0.56,0.51 -0.967,0.51 -0.423,0.001 -0.741,-0.175 -0.983,-0.51 z"
           id="path81" /><path
           d="m 84.338,73.207 c 0,-0.035 0,-0.053 -0.015,-0.087 v -0.087 c 0,-0.335 0.076,-0.599 0.212,-0.74 0.121,-0.159 0.333,-0.247 0.62,-0.247 l 0.575,0.071 v -0.583 l -0.696,-0.07 c -0.468,0 -0.816,0.141 -1.043,0.423 -0.228,0.263 -0.349,0.705 -0.349,1.286 v 0.035 H 82.81 v 0.512 h 0.832 v 4.174 h 0.695 V 73.72 h 1.119 v -0.512 h -1.118 z"
           id="path82" /><path
           d="m 86.938,73.207 v -1.179 l -0.71,0.069 v 1.109 h -0.802 v 0.512 h 0.802 v 2.431 c 0,0.458 0.014,0.757 0.06,0.934 0.015,0.141 0.061,0.281 0.136,0.387 0.136,0.195 0.302,0.335 0.499,0.423 0.167,0.087 0.409,0.141 0.711,0.141 l 0.575,-0.07 v -0.599 l -0.484,0.053 c -0.303,0 -0.513,-0.07 -0.62,-0.228 -0.122,-0.159 -0.167,-0.494 -0.167,-1.003 v -2.466 h 1.104 v -0.512 h -1.104 z"
           id="path83" /></g><g
         transform="scale(0.99662,1.0034)"
         stroke-width="80"
         aria-label="2000"
         id="g87"><path
           d="m 1126,257.7 v 7.6645 h -52.302 V 257.7 q 30.982,-23.21 36.919,-30.55 5.9913,-7.3947 5.9913,-14.627 0,-6.747 -5.0197,-10.903 -5.0198,-4.1561 -11.551,-4.1561 -6.747,0 -11.929,4.5879 -5.1817,4.534 -5.8294,12.36 l -8.5821,-2.5908 q 5.3975,-21.644 26.448,-21.644 11.389,0 18.514,6.4771 7.1247,6.4771 7.1247,15.815 0,6.4231 -3.4004,12.36 -3.3465,5.9373 -12.738,14.196 -9.3917,8.2583 -24.289,18.676 z"
           id="path84" /><path
           d="m 1152.8,266.82 q -12.738,0 -20.349,-11.011 -7.6105,-11.065 -7.6105,-27.42 0,-16.085 7.2327,-27.15 7.2327,-11.065 20.457,-11.065 13.818,0 20.942,11.551 7.1787,11.551 7.1787,27.096 0,15.221 -7.3406,26.61 -7.3407,11.389 -20.511,11.389 z m 0.054,-7.2327 q 9.3378,0 13.818,-8.4202 4.4799,-8.4742 4.4799,-21.266 0,-13.98 -4.5879,-23.263 -4.5879,-9.283 -14.142,-9.2838 -9.2298,0 -13.764,8.4742 -4.4799,8.4742 -4.4799,22.292 0,14.358 4.7498,22.94 4.7499,8.5281 13.926,8.5281 z"
           id="path85" /><path
           d="m 1205,266.82 q -12.738,0 -20.349,-11.011 -7.6106,-11.065 -7.6106,-27.42 0,-16.085 7.2328,-27.15 7.2327,-11.065 20.457,-11.065 13.818,0 20.942,11.551 7.1788,11.551 7.1788,27.096 0,15.221 -7.3407,26.61 -7.3407,11.389 -20.511,11.389 z m 0.054,-7.2327 q 9.3377,0 13.818,-8.4202 4.48,-8.4742 4.48,-21.266 0,-13.98 -4.5879,-23.263 -4.588,-9.2838 -14.142,-9.2838 -9.2299,0 -13.764,8.4742 -4.48,8.4742 -4.48,22.292 0,14.358 4.7499,22.94 4.7498,8.5281 13.926,8.5281 z"
           id="path86" /><path
           d="m 1257.3,266.82 q -12.738,0 -20.349,-11.011 -7.6105,-11.065 -7.6105,-27.42 0,-16.085 7.2327,-27.15 7.2327,-11.065 20.457,-11.065 13.818,0 20.942,11.551 7.1787,11.551 7.1787,27.096 0,15.221 -7.3406,26.61 -7.3407,11.389 -20.511,11.389 z m 0.054,-7.2327 q 9.3378,0 13.818,-8.4202 4.4799,-8.4742 4.4799,-21.266 0,-13.98 -4.5879,-23.263 -4.5879,-9.283 -14.142,-9.2838 -9.2298,0 -13.764,8.4742 -4.48,8.4742 -4.48,22.292 0,14.358 4.7499,22.94 4.7499,8.5281 13.926,8.5281 z"
           id="path87" /></g></g><path
       d="m 425.97,94.747 c -1.5993,0 -2.787,0.46164 -3.5627,1.3846 -0.77913,0.86075 -1.1937,2.3075 -1.1937,4.209 v 0.11385 h -2.8428 v 1.6759 h 2.8428 v 13.662 h 2.3757 v -13.662 h 3.8239 v -0.007 h 2.6386 v 7.9559 c 0,1.499 0.0471,2.4778 0.20426,3.0571 0.0513,0.46148 0.20913,0.92046 0.46543,1.2674 0.46474,0.63819 1.0312,1.0966 1.7044,1.3846 0.57068,0.28474 1.3973,0.46041 2.4293,0.46041 l 1.9655,-0.22937 v -1.9588 l -1.6541,0.17245 c -1.0354,0 -1.7522,-0.22959 -2.1179,-0.74671 -0.41691,-0.52038 -0.57091,-1.6156 -0.57091,-3.2814 v -8.0714 h 3.772 v -1.6759 h -3.772 v -3.8661 l -2.4259,0.22602 v 3.6297 h -2.7407 v 0.007 h -3.7184 v -0.003 c 0,-0.11454 -6.4e-4,-0.17334 -0.0519,-0.28461 v -0.28462 c 0,-1.0964 0.26019,-1.9594 0.72494,-2.4209 0.41349,-0.52038 1.1371,-0.80864 2.1179,-0.80864 l 1.9655,0.23104 v -1.9069 z m -85.052,0.28797 v 2.3037 h 2.3238 v -2.3037 z m -25.579,0.0033 v 20.75 h 2.225 v -18.564 l 6.9748,18.564 h 1.8617 l 7.0803,-18.391 v 18.391 h 2.5264 v -20.75 h -3.7703 l -6.5127,17.464 -6.6165,-17.464 z m 63.51,4.9456 c -2.1187,0 -3.8236,0.74952 -5.17,2.2485 -1.2917,1.5022 -1.9638,3.4629 -1.9638,5.8815 0,2.4219 0.67212,4.3809 1.9638,5.8798 1.3464,1.499 3.0444,2.2518 5.17,2.2518 2.1666,0 3.8654,-0.74631 5.2152,-2.2518 1.3464,-1.499 1.9655,-3.4547 1.9655,-5.8798 0,-2.4186 -0.61912,-4.3793 -1.9655,-5.8815 -1.2917,-1.4957 -2.9974,-2.2485 -5.2152,-2.2485 z m -24.914,0.0033 c -2.1734,0 -3.8731,0.74951 -5.1716,2.2485 -1.2917,1.5611 -1.9639,3.4629 -1.9639,5.8815 0,2.4775 0.56942,4.4365 1.8065,5.8798 1.237,1.499 2.895,2.2518 4.959,2.2518 1.6027,0 2.95,-0.46125 4.0298,-1.4398 1.032,-0.92294 1.755,-2.252 2.066,-3.9244 l -2.1698,-0.40181 c -0.20845,1.211 -0.67286,2.1894 -1.3461,2.821 -0.72446,0.63493 -1.5507,0.92249 -2.5281,0.92249 -1.2917,0 -2.3272,-0.52058 -3.1542,-1.6759 -0.77231,-1.0931 -1.1351,-2.5908 -1.1351,-4.4367 0,-1.8426 0.36171,-3.3416 1.1887,-4.4969 0.83724,-1.0866 1.9244,-1.6658 3.2162,-1.6658 0.98417,0 1.8074,0.34578 2.4259,1.0363 0.72446,0.69384 1.1387,1.6756 1.2925,2.8244 l 2.2217,-0.34657 c -0.25971,-1.6691 -0.93286,-3.0563 -1.9136,-4.0349 -1.032,-0.92294 -2.3237,-1.4432 -3.8239,-1.4432 z m 16.019,0 c -1.1345,0 -2.0631,0.34616 -2.7876,0.98109 -0.77573,0.57602 -1.3987,1.5575 -1.8601,2.883 v -3.4037 h -2.2752 v 15.337 h 2.3791 v -7.7282 c 0,-1.728 0.4644,-3.108 1.3461,-4.1521 0.87824,-1.0342 2.0672,-1.5587 3.6699,-1.5587 h 0.35828 l -0.003,-2.3004 z m 39.893,0 c -2.17,0 -3.8749,0.75278 -5.1666,2.2485 -1.3464,1.4433 -2.0191,3.4629 -2.0191,5.8815 0,2.4219 0.6727,4.3809 2.0191,5.8798 1.2917,1.499 2.9966,2.2485 5.1666,2.2485 2.1187,0 3.8755,-0.74951 5.2219,-2.2485 1.2849,-1.499 1.9622,-3.4547 1.9622,-5.8798 0,-2.4186 -0.67386,-4.3793 -1.9622,-5.8815 -1.2917,-1.4957 -3.0519,-2.2485 -5.2219,-2.2485 z m -15.558,0.0033 c -1.7052,0 -3.0999,0.46035 -4.132,1.3276 -1.032,0.86076 -1.6022,1.9573 -1.6022,3.3417 0,1.152 0.36217,2.0756 1.0832,2.7106 0.77231,0.63821 2.1195,1.2113 4.0332,1.6106 l 0.82706,0.17245 c 2.481,0.63167 3.7201,1.4986 3.7201,2.5917 0,0.74948 -0.30956,1.3852 -0.98277,1.8467 -0.6732,0.5171 -1.5546,0.74669 -2.5867,0.74669 -1.138,0 -2.0644,-0.22959 -2.8914,-0.74669 -0.77231,-0.57602 -1.3466,-1.2703 -1.6508,-2.1932 l -2.1196,0.41017 c 0.35882,1.3811 1.139,2.4767 2.2736,3.2262 1.1926,0.80184 2.6349,1.2071 4.3948,1.2071 1.8078,0 3.2518,-0.46157 4.3898,-1.3812 1.0867,-0.86403 1.706,-2.0782 1.706,-3.4037 0,-1.152 -0.41631,-2.0739 -1.192,-2.7089 -0.72446,-0.69383 -1.9653,-1.2695 -3.7218,-1.7244 l -1.3879,-0.28797 c -2.3238,-0.5171 -3.5158,-1.2709 -3.5158,-2.364 0,-0.74948 0.25876,-1.3281 0.87729,-1.783 0.57069,-0.4091 1.3949,-0.63787 2.3791,-0.63787 0.98076,0 1.8118,0.22877 2.3791,0.63787 0.61511,0.39929 1.0312,1.0368 1.2875,1.783 l 2.1698,-0.46041 c -0.35882,-1.2699 -1.0801,-2.2497 -2.0643,-2.8813 -0.98075,-0.69057 -2.2243,-1.0397 -3.6732,-1.0397 z m -53.371,0.46041 v 15.337 h 2.3238 v -15.337 z m 37.928,1.5001 c 1.4455,0 2.5326,0.52043 3.3049,1.6692 0.87824,1.0964 1.2925,2.5954 1.2925,4.4969 0,1.9081 -0.41426,3.4002 -1.2925,4.5555 -0.77572,1.0931 -1.9106,1.6692 -3.3049,1.6692 -1.3977,0 -2.4812,-0.57607 -3.3116,-1.6692 -0.82356,-1.0931 -1.2389,-2.5918 -1.2389,-4.5555 0,-1.9572 0.41291,-3.4562 1.192,-4.4969 0.82698,-1.1488 1.9608,-1.6692 3.3585,-1.6692 z m 31.001,0 c 1.3977,0 2.4819,0.52043 3.3602,1.6692 0.77231,1.0964 1.2372,2.5954 1.2372,4.4969 0,1.9081 -0.4655,3.4002 -1.2925,4.5555 -0.82699,1.0931 -1.9141,1.6692 -3.3049,1.6692 -1.4455,0.003 -2.5315,-0.57279 -3.3585,-1.6692 -0.82699,-1.152 -1.2406,-2.6508 -1.2406,-4.5555 0,-1.9015 0.4136,-3.4005 1.2406,-4.4969 0.77914,-1.152 1.913,-1.6692 3.3585,-1.6692 z"
       id="path88" /><path
       d="m 417.55,115.54 v 0.003 h -10.985 l -8.8549,33.226 -8.7729,-33.226 h -15.255 l -8.2204,33.627 -8.6925,-33.627 h -18.262 l 16.605,57.533 h 16.596 l 8.2204,-32.738 8.4564,32.734 h 16.283 l 13.338,-46.022 h 17.8 v -11.51 z m 93.033,0.003 v 18.55 c -1.4237,-1.6133 -3.0845,-2.8323 -4.9071,-3.561 -1.7336,-0.80814 -3.7089,-1.2172 -6.0808,-1.2172 -5.6089,0 -10.116,2.0311 -13.516,6.1628 -2.1666,2.6421 -3.653,5.8738 -4.4283,9.7088 v -0.1557 c 0,-5.507 -1.1811,-9.4769 -3.556,-11.992 -2.3718,-2.5125 -6.1676,-3.7318 -11.301,-3.7318 -3.0039,0 -5.6886,0.65016 -7.904,1.8668 -2.2154,1.1373 -3.955,2.9138 -5.2989,5.3441 v -6.074 h -16.36 v 42.622 h 17.628 v -26.165 c 0,-1.9424 0.3929,-3.4031 1.2674,-4.4551 0.86833,-1.1431 2.0559,-1.6257 3.633,-1.6257 1.5035,0 2.5308,0.48135 3.2396,1.4599 0.71493,0.97268 1.0246,2.5137 1.0246,4.5354 v 26.253 h 17.628 v -14.41 c 0.75335,3.8028 2.1801,7.026 4.2709,9.6385 3.2402,3.9672 7.6645,5.9117 13.277,5.9117 2.6879,0 5.0535,-0.48784 7.1154,-1.5369 2.0497,-1.1372 3.7895,-2.7567 5.2102,-4.949 l 0.0803,5.3491 h 16.677 v -14.13 c 1.0919,3.5273 3.0616,6.5636 5.9334,9.1077 4.581,4.1376 10.516,6.1594 18.021,6.1594 7.4315,0 13.436,-2.0218 18.023,-6.1594 4.581,-4.1317 6.876,-9.5556 6.876,-16.285 8.6e-4,-1.4325 -0.10911,-2.8037 -0.31642,-4.1186 l 8.7695,25.426 h 12.888 l 6.3269,-23.824 6.1628,23.824 h 13.04 l 9.3321,-27.34 c 0.20506,1.2017 0.60424,2.3567 1.1837,3.4372 0.94812,1.7044 2.2183,3.0816 3.7954,4.1336 2.6112,1.9366 6.9538,3.3214 13.198,4.3764 l 4.8201,0.6496 c 3.7127,0.40847 5.612,1.2903 5.612,2.595 0,0.80812 -0.55513,1.6182 -1.7395,2.0208 -1.1874,0.57303 -2.762,0.81367 -4.738,0.81367 -2.9272,0 -5.3025,-0.40736 -6.8827,-1.2155 -1.66,-0.80813 -2.7604,-2.0246 -3.1592,-3.5644 l -14.469,1.619 c 1.2672,4.3727 3.8761,7.6163 7.9877,9.8879 4.0318,2.2657 9.3212,3.4037 15.805,3.4037 6.959,0 12.574,-1.4636 16.836,-4.2994 4.2712,-2.7594 6.4072,-6.4067 6.4072,-10.941 0,-1.7044 -0.39815,-3.4085 -1.11,-5.0277 -0.63208,-1.4576 -1.6602,-2.753 -3.0839,-3.9696 -2.2123,-1.7808 -6.165,-3.1626 -11.857,-4.1353 l -6.1644,-0.89403 c -4.6639,-0.56422 -7.1121,-1.5366 -7.1121,-2.9148 0,-0.89041 0.47466,-1.5388 1.3461,-2.0208 0.86835,-0.40847 2.1304,-0.64959 3.7904,-0.64959 2.2154,0 4.0289,0.32201 5.3022,0.97439 1.2642,0.56716 2.3645,1.4586 3.1592,2.7574 l 13.832,-2.1899 c -1.5833,-3.6498 -4.191,-6.4882 -7.827,-8.51 -3.5593,-1.9395 -8.1377,-2.9115 -13.596,-2.9115 -6.5601,0 -11.69,1.3783 -15.646,4.0466 -0.71729,0.49551 -1.3688,1.0234 -1.9555,1.5838 l 1.48,-4.3346 h -12.414 l -6.5562,21.468 -5.7727,-21.468 h -13.355 l -5.612,20.903 -6.4005,-20.903 h -17.552 l 3.4706,10.065 c -1.0625,-1.8527 -2.4259,-3.5346 -4.0985,-5.0411 -4.5872,-4.0553 -10.596,-6.1628 -18.025,-6.1628 -7.5082,0 -13.439,2.1074 -18.103,6.1628 -2.8195,2.5413 -4.7677,5.5752 -5.853,9.0977 v -29.033 z m -93.036,14.911 v 42.619 h 18.257 v -42.619 z m 87.664,9.5614 c 1.8195,0 3.2463,0.48539 4.1085,1.3729 0.87448,1.0579 1.2657,2.3505 1.2657,4.055 v 12.155 c 0,1.6192 -0.3924,2.9973 -1.4264,3.9729 -0.94813,1.055 -2.1296,1.6123 -3.633,1.6123 -2.0527,0 -3.4766,-0.88327 -4.4216,-2.667 -0.94812,-1.7044 -1.4231,-4.455 -1.4231,-8.428 0,-4.1288 0.47497,-7.2128 1.4231,-9.0759 0.86527,-1.9483 2.2842,-2.9968 4.1068,-2.9968 z m 47.03,0 c 2.1294,0 3.6334,0.97009 4.6644,2.8361 0.95425,1.9424 1.5001,4.8611 1.5001,8.9135 0,4.0494 -0.5489,6.9698 -1.5001,8.9152 -1.031,1.8602 -2.5319,2.8361 -4.6644,2.8361 -2.1325,0 -3.7922,-0.97596 -4.7464,-2.8361 -0.94812,-1.7838 -1.4181,-4.7864 -1.4181,-8.9152 0,-4.0553 0.46995,-6.9711 1.4181,-8.9135 0.95425,-1.866 2.6139,-2.8361 4.7464,-2.8361 z"
       id="path89" /><path
       d="m 703.83,130.02 c -8.1829,0 -13.323,4.2348 -15.421,12.706 l 5.0042,1.5219 c 0.25178,-3.063 1.3844,-5.4816 3.3987,-7.256 2.0142,-1.7956 4.3336,-2.6938 6.9564,-2.6938 2.5388,0 4.7824,0.81276 6.7337,2.4393 1.9513,1.6266 2.9282,3.76 2.9282,6.4005 0,2.8306 -1.1651,5.693 -3.4941,8.587 -2.308,2.8729 -9.4835,8.8524 -21.527,17.936 v 4.4986 h 30.498 v -4.4986 h -23.7 c 5.791,-4.077 10.513,-7.7324 14.164,-10.964 3.6508,-3.232 6.1259,-6.0089 7.4268,-8.3326 1.3218,-2.3237 1.9823,-4.7439 1.9823,-7.2577 0,-3.6545 -1.3842,-6.7486 -4.1537,-9.2835 -2.7696,-2.5349 -6.3682,-3.8021 -10.795,-3.8021 z m 30.514,0 c -5.1406,0 -9.1172,2.1655 -11.929,6.496 -2.8118,4.3305 -4.2174,9.6435 -4.2174,15.939 0,6.4007 1.48,11.765 4.4384,16.096 2.9584,4.3094 6.9135,6.4641 11.865,6.4641 5.1196,0 9.1054,-2.2279 11.959,-6.6851 1.4541,-2.2713 2.5315,-4.741 3.2446,-7.4017 0.73827,2.8203 1.8697,5.3651 3.412,7.6227 2.9584,4.3094 6.9135,6.4641 11.865,6.4641 5.1195,0 9.1071,-2.2279 11.961,-6.6851 1.4541,-2.2713 2.5315,-4.741 3.2446,-7.4017 0.73825,2.8203 1.8697,5.3651 3.412,7.6227 2.9584,4.3094 6.9135,6.4641 11.865,6.4641 5.1196,0 9.1054,-2.2279 11.959,-6.6851 2.8535,-4.4572 4.281,-9.665 4.281,-15.622 0,-6.0838 -1.395,-11.386 -4.1855,-15.907 -2.7696,-4.5206 -6.8404,-6.7806 -12.212,-6.7806 -5.1406,0 -9.1172,2.1655 -11.929,6.496 -1.4601,2.2489 -2.5328,4.7686 -3.2346,7.5474 -0.69753,-2.6106 -1.7306,-5.0326 -3.1074,-7.2628 -2.7696,-4.5206 -6.8404,-6.7806 -12.212,-6.7806 -5.1405,0 -9.1156,2.1655 -11.927,6.496 -1.4598,2.2484 -2.5327,4.7677 -3.2346,7.5457 -0.69751,-2.61 -1.7326,-5.0313 -3.109,-7.2611 -2.7696,-4.5206 -6.8388,-6.7806 -12.21,-6.7806 z m -0.0636,4.214 c 3.7138,0 6.4621,1.8162 8.2455,5.4496 1.7834,3.6334 2.6754,8.1871 2.6754,13.658 0,5.0064 -0.87032,9.1681 -2.6118,12.485 -1.7415,3.2954 -4.4282,4.9423 -8.058,4.9423 -3.5669,0 -6.2735,-1.6683 -8.1199,-5.0059 -1.8464,-3.3588 -2.7692,-7.8483 -2.7692,-13.467 0,-5.4078 0.87033,-9.7692 2.6118,-13.086 1.7625,-3.3165 4.4383,-4.9758 8.0262,-4.9758 z m 30.482,0 c 3.7137,0 6.462,1.8162 8.2455,5.4496 1.7834,3.6334 2.6754,8.1871 2.6754,13.658 0,5.0064 -0.87195,9.1681 -2.6134,12.485 -1.7415,3.2954 -4.4265,4.9423 -8.0563,4.9423 -3.5669,0 -6.2736,-1.6683 -8.1199,-5.0059 -1.8464,-3.3588 -2.7692,-7.8483 -2.7692,-13.467 0,-5.4078 0.87029,-9.7692 2.6118,-13.086 1.7624,-3.3165 4.4383,-4.9758 8.0262,-4.9758 z m 30.481,0 c 3.7138,0 6.4621,1.8162 8.2455,5.4496 1.7834,3.6334 2.6754,8.1871 2.6754,13.658 0,5.0064 -0.87033,9.1681 -2.6118,12.485 -1.7415,3.2954 -4.4265,4.9423 -8.0563,4.9423 -3.5669,0 -6.2735,-1.6683 -8.12,-5.0059 -1.8464,-3.3588 -2.7708,-7.8483 -2.7708,-13.467 0,-5.4078 0.87195,-9.7692 2.6134,-13.086 1.7625,-3.3165 4.4366,-4.9758 8.0245,-4.9758 z"
       stroke-opacity="0"
       id="path90" /><g
       transform="matrix(3.0276,0,0,3.0276,-240.96,-475.92)"
       id="g137"><path
         d="m 147.45,199.64 3.2812,-8.125 c 1.5625,-0.0859 4.0977,0.26563 5.668,0.64453 l -3.375,8.3594 c -1.5312,-0.37891 -4.043,-0.83985 -5.5742,-0.87891"
         fill="#5494d4"
         id="path91" /><path
         d="m 162.2,195.43 -3.4102,8.3984 c -1.1406,-0.9375 -4.2656,-2.7188 -5.7656,-3.3086 l 3.375,-8.3594 c 1.5273,0.54297 4.7891,2.1797 5.8008,3.2695"
         fill="#fac705"
         id="path92" /><path
         d="m 165.54,187.65 -3.3477,7.7812 c -1.0938,-1 -4.2578,-2.707 -5.8008,-3.2695 l 3.3828,-8.375 c 1.543,0.51563 4.7617,2.7188 5.7656,3.8633"
         fill="#73ca54"
         id="path93" /><path
         d="m 150.73,191.52 3.3281,-8.2227 c 1.5586,-0.0547 4.1562,0.19141 5.7226,0.49219 l -3.3828,8.375 c -1.5508,-0.42578 -4.1172,-0.67578 -5.668,-0.64453"
         fill="#f3632e"
         id="path94" /><path
         d="m 139.46,194.54 -1.6055,-0.0273 c 0.10937,-0.32422 0.25,-0.6875 0.38672,-0.99219 l 1.6211,-0.004 c -0.11719,0.33204 -0.25781,0.69141 -0.40234,1.0234"
         fill="#5494d4"
         id="path95" /><path
         d="m 141.94,195.88 -2.0234,-0.0117 0.56641,-1.375 c 0.66797,-0.004 1.3438,0 2.0156,0.0234 l -0.55859,1.3633"
         fill="#5494d4"
         id="path96" /><path
         d="m 145.3,195.54 c -0.23437,0.53906 -0.43359,1.1172 -0.67578,1.6602 l -2.2773,-0.0273 0.67187,-1.6484 2.2812,0.0156"
         fill="#5494d4"
         id="path97" /><path
         d="m 137.3,192.89 -1.168,-0.008 c 0.0937,-0.26953 0.21094,-0.57031 0.33203,-0.83985 0.39844,-0.004 0.79688,-0.0273 1.1953,-0.0117 l -0.35938,0.85937"
         fill="#5494d4"
         id="path98" /><path
         d="m 135.19,191.18 c -0.30078,0.008 -0.60547,0.0391 -0.90625,0.0312 l 0.29297,-0.71093 c 0.30078,-0.0156 0.60156,-0.0312 0.90234,-0.0312 L 135.19,191.18"
         fill="#5494d4"
         id="path99" /><path
         d="m 140.52,191.9 -1.6094,-0.0195 0.38671,-0.98828 c 0.54688,0.0156 1.0938,-0.0156 1.6367,0.004 l -0.41406,1.0039"
         fill="#5494d4"
         id="path100" /><path
         d="m 142.99,193.26 -2.0078,-0.008 0.54297,-1.3672 c 0.67578,-0.004 1.3516,-0.008 2.0274,0.008 l -0.5625,1.3672"
         fill="#5494d4"
         id="path101" /><path
         d="m 145.7,194.55 -2.2852,-0.0508 0.66406,-1.6211 2.2774,0.0234 -0.65625,1.6484"
         fill="#5494d4"
         id="path102" /><path
         d="m 138.41,190.16 c -0.39063,-0.0117 -0.79297,0.0195 -1.1875,-0.004 l 0.35937,-0.88672 1.1641,0.0312 c -0.0859,0.27734 -0.20703,0.58203 -0.33594,0.85938"
         fill="#5494d4"
         id="path103" /><path
         d="m 136.29,188.46 -0.90235,0.0195 0.27735,-0.70703 c 0.29297,-0.0273 0.60937,-0.0273 0.91406,-0.0273 l -0.28906,0.71484"
         fill="#5494d4"
         id="path104" /><path
         d="m 142.71,186.48 -1.6133,-0.0117 0.39453,-1.0078 c 0.54297,0.008 1.0859,0 1.6328,0.0117 l -0.41406,1.0078"
         fill="#f3632e"
         id="path105" /><path
         d="m 143.18,187.84 0.54297,-1.3828 h 2.0117 L 145.1917,187.84 H 143.18"
         fill="#f3632e"
         id="path106" /><path
         d="m 147.92,189.04 -2.2852,-0.0156 0.66015,-1.6445 2.2812,0.008 -0.65625,1.6523"
         fill="#f3632e"
         id="path107" /><path
         d="m 140.61,184.72 c -0.38281,0.0195 -0.78515,0 -1.1758,0.008 l 0.32813,-0.875 c 0.38281,-0.0312 0.78906,0.0156 1.1758,0.004 l -0.32813,0.86328"
         fill="#f3632e"
         id="path108" /><path
         d="m 138.48,183.01 c -0.30078,0.008 -0.60156,0.0391 -0.90625,0.0273 l 0.29688,-0.71094 0.89453,-0.043 -0.28516,0.72656"
         fill="#f3632e"
         id="path109" /><path
         d="m 143.8,183.78 c -0.53906,0 -1.0781,-0.008 -1.6172,-0.0312 l 0.39844,-0.98828 c 0.54297,0.008 1.0859,-0.0117 1.6289,0.004 l -0.41016,1.0156"
         fill="#f3632e"
         id="path110" /><path
         d="m 146.27,185.14 c -0.67187,0 -1.3477,0.0117 -2.0234,-0.008 l 0.5625,-1.375 c 0.67578,-0.008 1.3477,0.004 2.0234,0.008 l -0.5625,1.375"
         fill="#f3632e"
         id="path111" /><path
         d="m 148.96,186.45 -2.2695,-0.0234 0.66016,-1.6524 2.2852,0.0156 -0.67578,1.6602"
         fill="#f3632e"
         id="path112" /><path
         d="m 141.69,182.02 h -1.1797 l 0.34765,-0.88672 c 0.39844,0.0195 0.78907,0 1.1836,0.0234 l -0.35156,0.86328"
         fill="#f3632e"
         id="path113" /><path
         d="m 139.58,180.3 -0.90625,0.0391 0.28125,-0.71484 c 0.30078,-0.0352 0.60547,-0.0195 0.90625,-0.0391 l -0.28125,0.71485"
         fill="#f3632e"
         id="path114" /><path
         d="m 138.44,197.3 c -0.63672,0.008 -1.2773,0.004 -1.918,-0.0156 l 0.45703,-1.1328 c 0.64063,0 1.2852,0.0195 1.9336,0.0117 l -0.47266,1.1367"
         id="path115" /><path
         d="m 153.11,184.74 -2.8711,0.0195 1.0078,-2.5039 c 0.97656,-0.10938 1.9609,-0.21485 2.9414,-0.1836 l -1.0781,2.668"
         id="path116" /><path
         d="m 140.71,177.73 -1.0898,0.0234 0.31641,-0.8086 c 0.36718,-0.008 0.73437,-0.0234 1.1016,-0.0234 l -0.32813,0.8086"
         id="path117" /><path
         d="m 142.88,179.33 c -0.48438,-0.0156 -0.96875,-0.0117 -1.457,-0.0312 l 0.38281,-0.9375 c 0.48828,0.0156 0.97656,-0.008 1.4648,0.0234 l -0.39062,0.94531"
         id="path118" /><path
         d="m 150.19,183.86 -2.7148,-0.0117 0.78906,-1.9727 2.7188,0.0234 -0.79297,1.9609"
         id="path119" /><path
         d="m 145.1,182.48 0.58985,-1.4922 2.3945,0.004 -0.60157,1.5039 -2.3828,-0.0156"
         id="path120" /><path
         d="m 144.98,181.11 -1.9219,-0.0156 0.44532,-1.125 c 0.64062,0 1.2852,-0.0234 1.9336,0 l -0.45703,1.1406"
         id="path121" /><path
         d="m 152.06,187.35 c -0.95703,0.0234 -1.918,0.0391 -2.8789,0.043 l 0.9375,-2.3164 2.8633,-0.0117 -0.92187,2.2852"
         id="path122" /><path
         d="m 150.98,190.01 -2.8711,0.0391 -0.0156,-0.008 0.92968,-2.3164 2.8945,-0.043 -0.9375,2.3281"
         id="path123" /><path
         d="m 136.37,185.81 0.31641,-0.80078 1.1055,-0.0391 -0.32422,0.82421 -1.0977,0.0156"
         id="path124" /><path
         d="m 147.04,192.68 0.92578,-2.3086 2.875,-0.0352 -0.91797,2.3125 -2.8828,0.0312"
         id="path125" /><path
         d="m 139.59,187.47 -1.457,-0.0195 0.38281,-0.9375 c 0.48828,0.0156 0.97265,-0.008 1.4609,0.0234 l -0.38672,0.93359"
         id="path126" /><path
         d="m 146.91,191.97 -2.7148,-0.0195 0.78125,-1.9609 2.7226,0.0234 -0.78906,1.957"
         id="path127" /><path
         d="m 144.2,190.63 -2.3711,-0.008 -0.0195,-0.008 0.60547,-1.4883 2.3906,0.004 -0.60547,1.5"
         id="path128" /><path
         d="m 141.69,189.26 -1.918,-0.0195 0.44141,-1.125 c 0.64843,-0.008 1.3008,-0.004 1.9492,0.008 l -0.47266,1.1367"
         id="path129" /><path
         d="m 148.84,195.33 -0.0117,0.0273 -2.875,0.0352 0.94141,-2.3711 2.8906,-0.0312 -0.94532,2.3398"
         id="path130" /><path
         d="m 147.76,198 -2.8828,0.0703 -0.0195,-0.008 0.95703,-2.3477 2.8711,-0.0273 -0.92578,2.3125"
         id="path131" /><path
         d="m 134.17,193.94 c -0.36328,-0.0117 -0.72656,0.0234 -1.0898,0 l 0.31641,-0.77344 c 0.37109,-0.0312 0.74219,-0.0234 1.1172,-0.0391 l -0.34375,0.8125"
         id="path132" /><path
         d="m 146.61,200.84 c -0.96094,-0.0234 -1.918,-0.0312 -2.8828,0.0469 l 1.0039,-2.4922 2.8945,-0.0508 -1.0156,2.4961"
         id="path133" /><path
         d="m 136.31,195.62 -1.4688,0.008 0.36328,-0.93359 c 0.4961,0 0.98438,-0.0156 1.4805,-0.004 l -0.375,0.92969"
         id="path134" /><path
         d="m 143.65,200.04 -2.7031,-0.0391 0.79297,-1.957 2.7031,0.0273 -0.79297,1.9688"
         id="path135" /><path
         d="m 138.57,198.67 0.60546,-1.5078 2.3789,0.0156 -0.60547,1.5117 -2.3789,-0.0195"
         id="path136" /><path
         d="m 164.05,188.08 c -1.0039,-1.1445 -2.3984,-1.957 -3.9414,-2.4688 l -2.4141,5.9727 c 1.5391,0.56641 2.8984,1.3438 3.9922,2.3398 z m -3.1328,7.793 c -1.0117,-1.0898 -2.4609,-1.8633 -3.9844,-2.4062 l -2.4531,6.1016 c 1.4961,0.58984 2.8984,1.2891 4.0391,2.2266 z m 6.2031,-8.4883 -7.668,18.977 c -1.9883,-2.7109 -5.4453,-4.4219 -8.918,-5.0703 -1.1953,-0.21875 -2.3945,-0.38281 -3.5898,-0.42969 l 1.0039,-2.4688 c 1.5312,0.043 3.0664,0.22266 4.5977,0.60547 l 2.4766,-6.1367 c -1.5703,-0.3789 -3.1367,-0.42578 -4.6992,-0.33984 l 0.80469,-2.0156 c 1.5469,-0.0312 3.0977,0.0664 4.6484,0.49218 l 2.3906,-5.9102 c -1.5664,-0.30469 -3.1328,-0.41407 -4.6914,-0.35938 l 1.0703,-2.6719 c 3.5547,-0.0156 7.668,0.97656 10.582,3.3359 0.73828,0.58594 1.418,1.2344 1.9922,1.9922"
         fill-rule="evenodd"
         id="path137" /></g></g></svg>
